<svg width="8" height="8" viewBox="0 0 8 8" fill="none" xmlns="http://www.w3.org/2000/svg">
<path d="M6.75646 1.00403C6.8947 0.87171 7.07867 0.798557 7.26954 0.800009C7.46041 0.801461 7.64325 0.877405 7.77949 1.01182C7.91573 1.14623 7.9947 1.32859 7.99974 1.52043C8.00479 1.71226 7.93551 1.89857 7.80653 2.04003L3.89085 6.96348C3.82352 7.03639 3.74226 7.0949 3.65192 7.13552C3.56158 7.17614 3.46403 7.19802 3.36509 7.19986C3.26614 7.2017 3.16785 7.18347 3.07608 7.14624C2.98431 7.10902 2.90094 7.05357 2.83097 6.98321L0.234262 4.3725C0.161948 4.30475 0.103946 4.22306 0.063718 4.13229C0.0234896 4.04151 0.00185823 3.94353 0.000114546 3.84417C-0.00162914 3.74481 0.0165507 3.64611 0.053569 3.55397C0.0905874 3.46183 0.145686 3.37812 0.215578 3.30785C0.28547 3.23758 0.368724 3.18219 0.460372 3.14497C0.552021 3.10775 0.650187 3.08948 0.749014 3.09123C0.847841 3.09298 0.945304 3.11473 1.03559 3.15517C1.12588 3.19562 1.20713 3.25393 1.27452 3.32664L3.32951 5.39172L6.73782 1.02574C6.74395 1.01814 6.7505 1.0109 6.75744 1.00403H6.75646Z" fill="#F8F8F8"/>
</svg>
